<svg xmlns="http://www.w3.org/2000/svg" width="631" height="507" viewBox="0 0 631 507" version="1.1">
  <path d="M 116 1.121 C 111.930 2.739, 108.267 6.906, 106.106 12.374 C 104.993 15.193, 100.949 26.050, 97.122 36.500 C 86.469 65.581, 72.829 101.037, 62.415 126.714 C 57.237 139.482, 53 151.246, 53 152.857 C 53 156.350, 53.955 156.808, 62.829 157.574 C 84.608 159.453, 125.429 168.828, 156.053 178.985 C 204.245 194.967, 257.982 223.021, 297.488 252.823 C 303.481 257.344, 305.798 258.583, 306.763 257.782 C 307.794 256.926, 308.034 238.573, 307.974 164.947 L 307.900 73.179 299.691 65.340 C 275.508 42.245, 243.343 24.931, 202.500 13.023 C 169.681 3.454, 125.441 -2.633, 116 1.121 M 488 0.667 C 486.625 0.883, 480.550 1.744, 474.500 2.579 C 460.422 4.522, 433.626 10.838, 419.534 15.534 C 383.690 27.480, 358.398 41.989, 332.750 65.321 L 324 73.280 324 164.672 C 324 245.326, 324.178 256.131, 325.513 256.643 C 326.398 256.983, 329.196 255.582, 332.263 253.263 C 371.062 223.922, 426.693 194.983, 475.061 178.980 C 505.414 168.937, 547.635 159.279, 565.500 158.290 C 571 157.986, 576.110 157.251, 576.856 156.658 C 579.384 154.646, 577.426 147.798, 566.227 119.490 C 560.136 104.095, 552.917 85.650, 550.183 78.500 C 547.450 71.350, 542.717 58.975, 539.667 51 C 536.616 43.025, 532.359 31.550, 530.206 25.500 C 521.575 1.239, 520.161 -0.055, 502.500 0.140 C 495.900 0.213, 489.375 0.450, 488 0.667 M 70.500 28.357 C 66.882 29.444, 66.274 30.130, 64.137 35.530 C 62.837 38.813, 56.689 52.750, 50.474 66.500 C 19.428 135.189, 1.931 174.133, 0.435 177.871 C -1.839 183.555, -0.825 188.103, 3.698 192.495 C 5.683 194.423, 7.705 196, 8.193 196 C 11.129 196, 72.823 220.598, 111 236.990 C 147.611 252.709, 171.410 263.687, 214 284.500 C 233.525 294.041, 250.453 302.119, 251.618 302.449 C 255.290 303.492, 257.471 306.674, 256.283 309.254 C 255.625 310.683, 243.295 318.669, 222.374 331.216 C 167.683 364.017, 121.502 394.737, 79 426.592 C 45.502 451.697, 25.329 468.052, 22.225 472.620 C 19.202 477.068, 18.054 487.603, 19.962 493.384 C 22.758 501.858, 30.233 507, 39.754 507 C 47.255 507, 47.705 506.715, 87.217 476.875 C 140.696 436.488, 180.588 409.324, 230.500 379.308 C 265.109 358.495, 310.763 334, 314.946 334 C 317.114 334, 350.927 350.588, 366.480 359.282 C 421.352 389.953, 477.719 427.386, 542.851 476.408 C 584.443 507.712, 582.362 506.358, 589.582 506.821 C 594.304 507.124, 596.569 506.750, 599.707 505.150 C 610.028 499.884, 614.734 486.969, 610.127 476.554 C 607.573 470.780, 605.939 469.222, 584 451.641 C 527.557 406.410, 449.002 353.382, 381.867 315.192 C 374.590 311.052, 373.396 309.600, 374.578 306.331 C 375.200 304.612, 376.965 303.207, 380 302.018 C 382.475 301.049, 394.850 295.202, 407.500 289.025 C 476.897 255.140, 523.744 234.298, 588.500 208.503 C 623.089 194.725, 626.702 193.067, 628.750 190.035 C 629.987 188.203, 631 185.248, 631 183.469 C 631 180.133, 618.157 150.850, 575.754 57.500 C 573.006 51.450, 569.290 42.900, 567.496 38.500 C 563.909 29.703, 562.036 28.097, 554.360 27.231 C 547.301 26.436, 546.768 27.018, 548.907 33.204 C 553.179 45.559, 563.907 71.962, 579.297 108 C 599.337 154.924, 601.281 160.130, 600.012 163.468 C 599.445 164.960, 597.964 166.210, 596.285 166.612 C 578.589 170.856, 541.340 180.841, 529.571 184.495 C 475.450 201.297, 422.815 223.897, 366.500 254.511 C 356.600 259.893, 341.750 267.632, 333.500 271.708 C 320.586 278.089, 317.953 279.051, 314.567 278.630 C 309.897 278.050, 292.683 269.756, 266.380 255.415 C 195.456 216.744, 131.802 191.434, 58 172.557 C 41.062 168.225, 32.088 165.471, 31.272 164.356 C 30.566 163.392, 30.317 161.574, 30.686 160.088 C 31.318 157.549, 49.543 113.547, 64.272 79 C 72.200 60.406, 82.403 34.321, 83.535 29.750 C 84.210 27.027, 84.169 27.001, 79.358 27.077 C 76.686 27.119, 72.700 27.695, 70.500 28.357 M 418.169 303.372 C 408.023 308.796, 406.420 309.779, 407.008 310.215 C 407.279 310.416, 413.125 313.931, 420 318.027 C 445.214 333.049, 477.995 353.928, 527.779 386.673 C 553.530 403.611, 556.925 405.075, 560.996 401.004 C 562.781 399.219, 563.108 398.054, 562.638 395.156 C 561.887 390.530, 556.383 377.176, 554.036 374.286 C 552.117 371.923, 519.062 349.939, 500 338.349 C 486.641 330.226, 473.253 323.038, 445.696 309.193 L 425.891 299.244 418.169 303.372 M 177.925 312.853 C 164.409 319.809, 148.209 328.361, 141.925 331.857 C 124.644 341.472, 78.289 371.772, 76.198 374.819 C 75.186 376.293, 73.107 380.197, 71.577 383.494 C 66.715 393.969, 66.836 399.861, 71.956 401.982 C 75.921 403.624, 78.841 402.541, 89.786 395.368 C 142.265 360.975, 183.331 334.726, 209.250 319.009 C 216.813 314.424, 222.980 310.408, 222.955 310.086 C 222.917 309.584, 204.977 300.769, 203.147 300.353 C 202.791 300.272, 191.441 305.897, 177.925 312.853" stroke="none" fill="#2b94e4" fill-rule="evenodd"/>
</svg>